<mxfile host="app.diagrams.net" modified="2024-03-28T16:38:02.637Z" agent="Mozilla/5.0 (Windows NT 10.0; Win64; x64) AppleWebKit/537.36 (KHTML, like Gecko) Chrome/123.0.0.0 Safari/537.36" etag="aroqcJTZUnxcpc6VTWEZ" version="24.2.0" type="device">
  <diagram id="TULRW8uvUbsVAmaJAi9k" name="Page-1">
    <mxGraphModel dx="1050" dy="522" grid="1" gridSize="10" guides="1" tooltips="1" connect="1" arrows="1" fold="1" page="1" pageScale="1" pageWidth="850" pageHeight="1100" math="0" shadow="0">
      <root>
        <mxCell id="0" />
        <mxCell id="1" parent="0" />
        <mxCell id="ec8auvbrhuzbYFVYdE39-1" value="Members" style="rounded=0;whiteSpace=wrap;html=1;" parent="1" vertex="1">
          <mxGeometry x="365" y="140" width="120" height="60" as="geometry" />
        </mxCell>
        <mxCell id="ec8auvbrhuzbYFVYdE39-2" value="&lt;u&gt;email&lt;/u&gt;" style="ellipse;whiteSpace=wrap;html=1;" parent="1" vertex="1">
          <mxGeometry x="180" y="130" width="100" height="30" as="geometry" />
        </mxCell>
        <mxCell id="ec8auvbrhuzbYFVYdE39-3" value="" style="endArrow=none;html=1;rounded=0;entryX=0;entryY=0.5;entryDx=0;entryDy=0;exitX=1;exitY=0.5;exitDx=0;exitDy=0;" parent="1" source="ec8auvbrhuzbYFVYdE39-2" target="ec8auvbrhuzbYFVYdE39-1" edge="1">
          <mxGeometry width="50" height="50" relative="1" as="geometry">
            <mxPoint x="280" y="140" as="sourcePoint" />
            <mxPoint x="330" y="90" as="targetPoint" />
          </mxGeometry>
        </mxCell>
        <mxCell id="ec8auvbrhuzbYFVYdE39-4" value="passwd" style="ellipse;whiteSpace=wrap;html=1;" parent="1" vertex="1">
          <mxGeometry x="180" y="180" width="100" height="30" as="geometry" />
        </mxCell>
        <mxCell id="ec8auvbrhuzbYFVYdE39-5" value="" style="endArrow=none;html=1;rounded=0;entryX=0;entryY=0.5;entryDx=0;entryDy=0;exitX=1;exitY=0.5;exitDx=0;exitDy=0;" parent="1" source="ec8auvbrhuzbYFVYdE39-4" target="ec8auvbrhuzbYFVYdE39-1" edge="1">
          <mxGeometry width="50" height="50" relative="1" as="geometry">
            <mxPoint x="280" y="210" as="sourcePoint" />
            <mxPoint x="365" y="240" as="targetPoint" />
          </mxGeometry>
        </mxCell>
        <mxCell id="ec8auvbrhuzbYFVYdE39-6" value="" style="endArrow=none;html=1;rounded=0;entryX=0.5;entryY=1;entryDx=0;entryDy=0;" parent="1" target="ec8auvbrhuzbYFVYdE39-1" edge="1">
          <mxGeometry width="50" height="50" relative="1" as="geometry">
            <mxPoint x="425" y="270" as="sourcePoint" />
            <mxPoint x="430" y="290" as="targetPoint" />
          </mxGeometry>
        </mxCell>
        <mxCell id="ec8auvbrhuzbYFVYdE39-8" value="1" style="edgeLabel;html=1;align=center;verticalAlign=middle;resizable=0;points=[];" parent="ec8auvbrhuzbYFVYdE39-6" vertex="1" connectable="0">
          <mxGeometry x="0.7286" y="-1" relative="1" as="geometry">
            <mxPoint x="4" as="offset" />
          </mxGeometry>
        </mxCell>
        <mxCell id="ec8auvbrhuzbYFVYdE39-7" value="Makes a" style="rhombus;whiteSpace=wrap;html=1;" parent="1" vertex="1">
          <mxGeometry x="353" y="270" width="145" height="70" as="geometry" />
        </mxCell>
        <mxCell id="ec8auvbrhuzbYFVYdE39-9" value="1" style="edgeLabel;html=1;align=center;verticalAlign=middle;resizable=0;points=[];" parent="1" vertex="1" connectable="0">
          <mxGeometry x="450" y="399.995" as="geometry">
            <mxPoint x="-12" y="41" as="offset" />
          </mxGeometry>
        </mxCell>
        <mxCell id="ec8auvbrhuzbYFVYdE39-10" value="" style="endArrow=none;html=1;rounded=0;entryX=0.5;entryY=1;entryDx=0;entryDy=0;exitX=0.5;exitY=0;exitDx=0;exitDy=0;" parent="1" source="ec8auvbrhuzbYFVYdE39-11" target="ec8auvbrhuzbYFVYdE39-7" edge="1">
          <mxGeometry width="50" height="50" relative="1" as="geometry">
            <mxPoint x="426" y="400" as="sourcePoint" />
            <mxPoint x="320" y="380" as="targetPoint" />
          </mxGeometry>
        </mxCell>
        <mxCell id="ec8auvbrhuzbYFVYdE39-11" value="Profile" style="rounded=0;whiteSpace=wrap;html=1;" parent="1" vertex="1">
          <mxGeometry x="365.5" y="450" width="120" height="60" as="geometry" />
        </mxCell>
        <mxCell id="ec8auvbrhuzbYFVYdE39-13" value="" style="endArrow=none;html=1;rounded=0;entryX=0;entryY=0.5;entryDx=0;entryDy=0;exitX=1;exitY=0.5;exitDx=0;exitDy=0;" parent="1" source="ec8auvbrhuzbYFVYdE39-14" target="ec8auvbrhuzbYFVYdE39-11" edge="1">
          <mxGeometry width="50" height="50" relative="1" as="geometry">
            <mxPoint x="270" y="375" as="sourcePoint" />
            <mxPoint x="355" y="400" as="targetPoint" />
          </mxGeometry>
        </mxCell>
        <mxCell id="ec8auvbrhuzbYFVYdE39-14" value="email" style="ellipse;whiteSpace=wrap;html=1;" parent="1" vertex="1">
          <mxGeometry x="170" y="380" width="100" height="30" as="geometry" />
        </mxCell>
        <mxCell id="ec8auvbrhuzbYFVYdE39-15" value="" style="endArrow=none;html=1;rounded=0;entryX=0;entryY=0.5;entryDx=0;entryDy=0;exitX=1;exitY=0.5;exitDx=0;exitDy=0;" parent="1" source="ec8auvbrhuzbYFVYdE39-16" target="ec8auvbrhuzbYFVYdE39-11" edge="1">
          <mxGeometry width="50" height="50" relative="1" as="geometry">
            <mxPoint x="270" y="415" as="sourcePoint" />
            <mxPoint x="366" y="470" as="targetPoint" />
          </mxGeometry>
        </mxCell>
        <mxCell id="ec8auvbrhuzbYFVYdE39-16" value="first_name" style="ellipse;whiteSpace=wrap;html=1;" parent="1" vertex="1">
          <mxGeometry x="170" y="420" width="100" height="30" as="geometry" />
        </mxCell>
        <mxCell id="ec8auvbrhuzbYFVYdE39-19" value="" style="endArrow=none;html=1;rounded=0;entryX=0;entryY=0.5;entryDx=0;entryDy=0;exitX=1;exitY=0.5;exitDx=0;exitDy=0;" parent="1" source="ec8auvbrhuzbYFVYdE39-20" edge="1">
          <mxGeometry width="50" height="50" relative="1" as="geometry">
            <mxPoint x="270" y="495" as="sourcePoint" />
            <mxPoint x="365.5" y="480" as="targetPoint" />
          </mxGeometry>
        </mxCell>
        <mxCell id="ec8auvbrhuzbYFVYdE39-20" value="age" style="ellipse;whiteSpace=wrap;html=1;" parent="1" vertex="1">
          <mxGeometry x="170" y="490" width="100" height="30" as="geometry" />
        </mxCell>
        <mxCell id="ec8auvbrhuzbYFVYdE39-21" value="" style="endArrow=none;html=1;rounded=0;exitX=1;exitY=0.5;exitDx=0;exitDy=0;entryX=0;entryY=0.5;entryDx=0;entryDy=0;" parent="1" source="ec8auvbrhuzbYFVYdE39-22" target="ec8auvbrhuzbYFVYdE39-11" edge="1">
          <mxGeometry width="50" height="50" relative="1" as="geometry">
            <mxPoint x="280" y="505" as="sourcePoint" />
            <mxPoint x="360" y="480" as="targetPoint" />
          </mxGeometry>
        </mxCell>
        <mxCell id="ec8auvbrhuzbYFVYdE39-22" value="gender" style="ellipse;whiteSpace=wrap;html=1;" parent="1" vertex="1">
          <mxGeometry x="170" y="540" width="100" height="30" as="geometry" />
        </mxCell>
        <mxCell id="ec8auvbrhuzbYFVYdE39-29" value="height" style="ellipse;whiteSpace=wrap;html=1;" parent="1" vertex="1">
          <mxGeometry x="580" y="390" width="100" height="30" as="geometry" />
        </mxCell>
        <mxCell id="ec8auvbrhuzbYFVYdE39-30" value="weight" style="ellipse;whiteSpace=wrap;html=1;" parent="1" vertex="1">
          <mxGeometry x="580" y="440" width="100" height="30" as="geometry" />
        </mxCell>
        <mxCell id="ec8auvbrhuzbYFVYdE39-32" value="goal_type" style="ellipse;whiteSpace=wrap;html=1;" parent="1" vertex="1">
          <mxGeometry x="580" y="490" width="100" height="30" as="geometry" />
        </mxCell>
        <mxCell id="ec8auvbrhuzbYFVYdE39-33" value="target_weight" style="ellipse;whiteSpace=wrap;html=1;" parent="1" vertex="1">
          <mxGeometry x="580" y="535" width="100" height="30" as="geometry" />
        </mxCell>
        <mxCell id="ec8auvbrhuzbYFVYdE39-34" value="" style="endArrow=none;html=1;rounded=0;entryX=0;entryY=0.5;entryDx=0;entryDy=0;exitX=1;exitY=0.5;exitDx=0;exitDy=0;" parent="1" source="ec8auvbrhuzbYFVYdE39-11" target="ec8auvbrhuzbYFVYdE39-29" edge="1">
          <mxGeometry width="50" height="50" relative="1" as="geometry">
            <mxPoint x="530" y="450" as="sourcePoint" />
            <mxPoint x="580" y="400" as="targetPoint" />
          </mxGeometry>
        </mxCell>
        <mxCell id="ec8auvbrhuzbYFVYdE39-35" value="" style="endArrow=none;html=1;rounded=0;entryX=0;entryY=0.5;entryDx=0;entryDy=0;exitX=1;exitY=0.5;exitDx=0;exitDy=0;" parent="1" source="ec8auvbrhuzbYFVYdE39-11" target="ec8auvbrhuzbYFVYdE39-30" edge="1">
          <mxGeometry width="50" height="50" relative="1" as="geometry">
            <mxPoint x="496" y="490" as="sourcePoint" />
            <mxPoint x="590" y="405" as="targetPoint" />
          </mxGeometry>
        </mxCell>
        <mxCell id="ec8auvbrhuzbYFVYdE39-37" value="" style="endArrow=none;html=1;rounded=0;entryX=0;entryY=0.5;entryDx=0;entryDy=0;exitX=1;exitY=0.5;exitDx=0;exitDy=0;" parent="1" source="ec8auvbrhuzbYFVYdE39-11" target="ec8auvbrhuzbYFVYdE39-32" edge="1">
          <mxGeometry width="50" height="50" relative="1" as="geometry">
            <mxPoint x="500" y="490" as="sourcePoint" />
            <mxPoint x="589" y="490" as="targetPoint" />
          </mxGeometry>
        </mxCell>
        <mxCell id="ec8auvbrhuzbYFVYdE39-38" value="" style="endArrow=none;html=1;rounded=0;entryX=0;entryY=0.5;entryDx=0;entryDy=0;exitX=1;exitY=0.5;exitDx=0;exitDy=0;" parent="1" source="ec8auvbrhuzbYFVYdE39-11" target="ec8auvbrhuzbYFVYdE39-33" edge="1">
          <mxGeometry width="50" height="50" relative="1" as="geometry">
            <mxPoint x="496" y="490" as="sourcePoint" />
            <mxPoint x="590" y="535" as="targetPoint" />
          </mxGeometry>
        </mxCell>
        <mxCell id="ec8auvbrhuzbYFVYdE39-39" value="Joins" style="rhombus;whiteSpace=wrap;html=1;" parent="1" vertex="1">
          <mxGeometry x="670" y="135" width="150" height="70" as="geometry" />
        </mxCell>
        <mxCell id="ec8auvbrhuzbYFVYdE39-42" value="" style="endArrow=none;html=1;rounded=0;exitX=1;exitY=0.5;exitDx=0;exitDy=0;entryX=0;entryY=0.5;entryDx=0;entryDy=0;" parent="1" source="ec8auvbrhuzbYFVYdE39-1" target="ec8auvbrhuzbYFVYdE39-39" edge="1">
          <mxGeometry width="50" height="50" relative="1" as="geometry">
            <mxPoint x="610" y="230" as="sourcePoint" />
            <mxPoint x="660" y="180" as="targetPoint" />
          </mxGeometry>
        </mxCell>
        <mxCell id="ec8auvbrhuzbYFVYdE39-43" value="1" style="edgeLabel;html=1;align=center;verticalAlign=middle;resizable=0;points=[];" parent="ec8auvbrhuzbYFVYdE39-42" vertex="1" connectable="0">
          <mxGeometry x="-0.9022" y="1" relative="1" as="geometry">
            <mxPoint y="11" as="offset" />
          </mxGeometry>
        </mxCell>
        <mxCell id="ec8auvbrhuzbYFVYdE39-44" value="" style="endArrow=none;html=1;rounded=0;exitX=1;exitY=0.5;exitDx=0;exitDy=0;entryX=0;entryY=0.5;entryDx=0;entryDy=0;" parent="1" source="ec8auvbrhuzbYFVYdE39-39" target="ec8auvbrhuzbYFVYdE39-45" edge="1">
          <mxGeometry width="50" height="50" relative="1" as="geometry">
            <mxPoint x="900" y="180" as="sourcePoint" />
            <mxPoint x="1040" y="170" as="targetPoint" />
          </mxGeometry>
        </mxCell>
        <mxCell id="ec8auvbrhuzbYFVYdE39-45" value="Schedule" style="rounded=0;whiteSpace=wrap;html=1;" parent="1" vertex="1">
          <mxGeometry x="970" y="140" width="120" height="60" as="geometry" />
        </mxCell>
        <mxCell id="ec8auvbrhuzbYFVYdE39-46" value="Trainer" style="rounded=0;whiteSpace=wrap;html=1;" parent="1" vertex="1">
          <mxGeometry x="970" y="450" width="120" height="60" as="geometry" />
        </mxCell>
        <mxCell id="ec8auvbrhuzbYFVYdE39-47" value="Makes" style="rhombus;whiteSpace=wrap;html=1;" parent="1" vertex="1">
          <mxGeometry x="955" y="280" width="150" height="70" as="geometry" />
        </mxCell>
        <mxCell id="ec8auvbrhuzbYFVYdE39-48" value="" style="endArrow=none;html=1;rounded=0;exitX=0.5;exitY=0;exitDx=0;exitDy=0;entryX=0.5;entryY=1;entryDx=0;entryDy=0;" parent="1" source="ec8auvbrhuzbYFVYdE39-46" target="ec8auvbrhuzbYFVYdE39-47" edge="1">
          <mxGeometry width="50" height="50" relative="1" as="geometry">
            <mxPoint x="485" y="800" as="sourcePoint" />
            <mxPoint x="660" y="810" as="targetPoint" />
          </mxGeometry>
        </mxCell>
        <mxCell id="ec8auvbrhuzbYFVYdE39-49" value="1" style="edgeLabel;html=1;align=center;verticalAlign=middle;resizable=0;points=[];" parent="ec8auvbrhuzbYFVYdE39-48" vertex="1" connectable="0">
          <mxGeometry x="-0.9022" y="1" relative="1" as="geometry">
            <mxPoint x="11" y="-5" as="offset" />
          </mxGeometry>
        </mxCell>
        <mxCell id="ec8auvbrhuzbYFVYdE39-50" value="" style="endArrow=none;html=1;rounded=0;exitX=0.5;exitY=0;exitDx=0;exitDy=0;entryX=0.5;entryY=1;entryDx=0;entryDy=0;" parent="1" source="ec8auvbrhuzbYFVYdE39-47" target="ec8auvbrhuzbYFVYdE39-45" edge="1">
          <mxGeometry width="50" height="50" relative="1" as="geometry">
            <mxPoint x="900" y="810" as="sourcePoint" />
            <mxPoint x="970" y="800" as="targetPoint" />
          </mxGeometry>
        </mxCell>
        <mxCell id="YrmcnvGJ-LemfI6sICw7-1" value="&lt;u&gt;email&lt;/u&gt;" style="ellipse;whiteSpace=wrap;html=1;" parent="1" vertex="1">
          <mxGeometry x="780" y="365" width="100" height="30" as="geometry" />
        </mxCell>
        <mxCell id="YrmcnvGJ-LemfI6sICw7-2" value="first_name" style="ellipse;whiteSpace=wrap;html=1;" parent="1" vertex="1">
          <mxGeometry x="780" y="415" width="100" height="30" as="geometry" />
        </mxCell>
        <mxCell id="YrmcnvGJ-LemfI6sICw7-3" value="start_time" style="ellipse;whiteSpace=wrap;html=1;" parent="1" vertex="1">
          <mxGeometry x="780" y="465" width="100" height="30" as="geometry" />
        </mxCell>
        <mxCell id="YrmcnvGJ-LemfI6sICw7-4" value="end_time" style="ellipse;whiteSpace=wrap;html=1;" parent="1" vertex="1">
          <mxGeometry x="780" y="510" width="100" height="30" as="geometry" />
        </mxCell>
        <mxCell id="YrmcnvGJ-LemfI6sICw7-6" value="" style="endArrow=none;html=1;rounded=0;exitX=1;exitY=0.5;exitDx=0;exitDy=0;entryX=0;entryY=0.5;entryDx=0;entryDy=0;" parent="1" source="YrmcnvGJ-LemfI6sICw7-1" target="ec8auvbrhuzbYFVYdE39-46" edge="1">
          <mxGeometry width="50" height="50" relative="1" as="geometry">
            <mxPoint x="890" y="380" as="sourcePoint" />
            <mxPoint x="940" y="330" as="targetPoint" />
          </mxGeometry>
        </mxCell>
        <mxCell id="YrmcnvGJ-LemfI6sICw7-7" value="" style="endArrow=none;html=1;rounded=0;exitX=1;exitY=0.5;exitDx=0;exitDy=0;entryX=0;entryY=0.5;entryDx=0;entryDy=0;" parent="1" source="YrmcnvGJ-LemfI6sICw7-2" target="ec8auvbrhuzbYFVYdE39-46" edge="1">
          <mxGeometry width="50" height="50" relative="1" as="geometry">
            <mxPoint x="980" y="610" as="sourcePoint" />
            <mxPoint x="1030" y="560" as="targetPoint" />
          </mxGeometry>
        </mxCell>
        <mxCell id="YrmcnvGJ-LemfI6sICw7-8" value="" style="endArrow=none;html=1;rounded=0;exitX=1;exitY=0.5;exitDx=0;exitDy=0;entryX=0;entryY=0.5;entryDx=0;entryDy=0;" parent="1" source="YrmcnvGJ-LemfI6sICw7-3" target="ec8auvbrhuzbYFVYdE39-46" edge="1">
          <mxGeometry width="50" height="50" relative="1" as="geometry">
            <mxPoint x="980" y="650" as="sourcePoint" />
            <mxPoint x="1030" y="600" as="targetPoint" />
          </mxGeometry>
        </mxCell>
        <mxCell id="YrmcnvGJ-LemfI6sICw7-9" value="" style="endArrow=none;html=1;rounded=0;exitX=1;exitY=0.5;exitDx=0;exitDy=0;entryX=0;entryY=0.5;entryDx=0;entryDy=0;" parent="1" source="YrmcnvGJ-LemfI6sICw7-4" target="ec8auvbrhuzbYFVYdE39-46" edge="1">
          <mxGeometry width="50" height="50" relative="1" as="geometry">
            <mxPoint x="990" y="610" as="sourcePoint" />
            <mxPoint x="1040" y="560" as="targetPoint" />
          </mxGeometry>
        </mxCell>
        <mxCell id="YrmcnvGJ-LemfI6sICw7-10" value="Admin_staff" style="rounded=0;whiteSpace=wrap;html=1;" parent="1" vertex="1">
          <mxGeometry x="1565" y="140" width="120" height="60" as="geometry" />
        </mxCell>
        <mxCell id="YrmcnvGJ-LemfI6sICw7-16" value="Updates" style="rhombus;whiteSpace=wrap;html=1;" parent="1" vertex="1">
          <mxGeometry x="1210" y="135" width="150" height="70" as="geometry" />
        </mxCell>
        <mxCell id="YrmcnvGJ-LemfI6sICw7-17" value="" style="endArrow=none;html=1;rounded=0;exitX=1;exitY=0.5;exitDx=0;exitDy=0;entryX=0;entryY=0.5;entryDx=0;entryDy=0;" parent="1" source="ec8auvbrhuzbYFVYdE39-45" target="YrmcnvGJ-LemfI6sICw7-16" edge="1">
          <mxGeometry width="50" height="50" relative="1" as="geometry">
            <mxPoint x="1280" y="450" as="sourcePoint" />
            <mxPoint x="1330" y="400" as="targetPoint" />
          </mxGeometry>
        </mxCell>
        <mxCell id="YrmcnvGJ-LemfI6sICw7-18" value="" style="endArrow=none;html=1;rounded=0;exitX=1;exitY=0.5;exitDx=0;exitDy=0;entryX=0;entryY=0.5;entryDx=0;entryDy=0;" parent="1" target="YrmcnvGJ-LemfI6sICw7-10" edge="1">
          <mxGeometry width="50" height="50" relative="1" as="geometry">
            <mxPoint x="1360" y="169.29" as="sourcePoint" />
            <mxPoint x="1480" y="169.29" as="targetPoint" />
            <Array as="points">
              <mxPoint x="1360" y="170" />
            </Array>
          </mxGeometry>
        </mxCell>
        <mxCell id="YrmcnvGJ-LemfI6sICw7-19" value="end_time" style="ellipse;whiteSpace=wrap;html=1;" parent="1" vertex="1">
          <mxGeometry x="1175" y="20" width="100" height="30" as="geometry" />
        </mxCell>
        <mxCell id="YrmcnvGJ-LemfI6sICw7-20" value="start_time" style="ellipse;whiteSpace=wrap;html=1;" parent="1" vertex="1">
          <mxGeometry x="1050" y="20" width="100" height="30" as="geometry" />
        </mxCell>
        <mxCell id="YrmcnvGJ-LemfI6sICw7-21" value="type" style="ellipse;whiteSpace=wrap;html=1;" parent="1" vertex="1">
          <mxGeometry x="1295" y="20" width="100" height="30" as="geometry" />
        </mxCell>
        <mxCell id="YrmcnvGJ-LemfI6sICw7-22" value="member_id" style="ellipse;whiteSpace=wrap;html=1;" parent="1" vertex="1">
          <mxGeometry x="810" y="20" width="100" height="30" as="geometry" />
        </mxCell>
        <mxCell id="YrmcnvGJ-LemfI6sICw7-23" value="trainer_id" style="ellipse;whiteSpace=wrap;html=1;" parent="1" vertex="1">
          <mxGeometry x="925" y="20" width="100" height="30" as="geometry" />
        </mxCell>
        <mxCell id="YrmcnvGJ-LemfI6sICw7-24" value="" style="endArrow=none;html=1;rounded=0;entryX=0.5;entryY=1;entryDx=0;entryDy=0;exitX=0.5;exitY=0;exitDx=0;exitDy=0;" parent="1" source="ec8auvbrhuzbYFVYdE39-45" target="YrmcnvGJ-LemfI6sICw7-20" edge="1">
          <mxGeometry width="50" height="50" relative="1" as="geometry">
            <mxPoint x="970" y="130" as="sourcePoint" />
            <mxPoint x="1020" y="80" as="targetPoint" />
          </mxGeometry>
        </mxCell>
        <mxCell id="YrmcnvGJ-LemfI6sICw7-25" value="" style="endArrow=none;html=1;rounded=0;entryX=0.5;entryY=1;entryDx=0;entryDy=0;exitX=0.5;exitY=0;exitDx=0;exitDy=0;" parent="1" source="ec8auvbrhuzbYFVYdE39-45" target="YrmcnvGJ-LemfI6sICw7-19" edge="1">
          <mxGeometry width="50" height="50" relative="1" as="geometry">
            <mxPoint x="1040" y="150" as="sourcePoint" />
            <mxPoint x="1040" y="60" as="targetPoint" />
          </mxGeometry>
        </mxCell>
        <mxCell id="YrmcnvGJ-LemfI6sICw7-26" value="" style="endArrow=none;html=1;rounded=0;entryX=0.5;entryY=1;entryDx=0;entryDy=0;exitX=0.5;exitY=0;exitDx=0;exitDy=0;" parent="1" source="ec8auvbrhuzbYFVYdE39-45" target="YrmcnvGJ-LemfI6sICw7-21" edge="1">
          <mxGeometry width="50" height="50" relative="1" as="geometry">
            <mxPoint x="1050" y="160" as="sourcePoint" />
            <mxPoint x="1050" y="70" as="targetPoint" />
          </mxGeometry>
        </mxCell>
        <mxCell id="YrmcnvGJ-LemfI6sICw7-27" value="" style="endArrow=none;html=1;rounded=0;entryX=0.5;entryY=1;entryDx=0;entryDy=0;exitX=0.5;exitY=0;exitDx=0;exitDy=0;" parent="1" source="ec8auvbrhuzbYFVYdE39-45" target="YrmcnvGJ-LemfI6sICw7-23" edge="1">
          <mxGeometry width="50" height="50" relative="1" as="geometry">
            <mxPoint x="730" y="160" as="sourcePoint" />
            <mxPoint x="880" y="70" as="targetPoint" />
          </mxGeometry>
        </mxCell>
        <mxCell id="YrmcnvGJ-LemfI6sICw7-28" value="" style="endArrow=none;html=1;rounded=0;entryX=0.5;entryY=1;entryDx=0;entryDy=0;exitX=0.5;exitY=0;exitDx=0;exitDy=0;" parent="1" source="ec8auvbrhuzbYFVYdE39-45" target="YrmcnvGJ-LemfI6sICw7-22" edge="1">
          <mxGeometry width="50" height="50" relative="1" as="geometry">
            <mxPoint x="990" y="170" as="sourcePoint" />
            <mxPoint x="840" y="80" as="targetPoint" />
          </mxGeometry>
        </mxCell>
        <mxCell id="YrmcnvGJ-LemfI6sICw7-41" value="" style="endArrow=none;html=1;rounded=0;entryX=0.5;entryY=1;entryDx=0;entryDy=0;exitX=0.5;exitY=0;exitDx=0;exitDy=0;" parent="1" source="YrmcnvGJ-LemfI6sICw7-43" target="YrmcnvGJ-LemfI6sICw7-10" edge="1">
          <mxGeometry width="50" height="50" relative="1" as="geometry">
            <mxPoint x="1430" y="330" as="sourcePoint" />
            <mxPoint x="1480" y="280" as="targetPoint" />
          </mxGeometry>
        </mxCell>
        <mxCell id="YrmcnvGJ-LemfI6sICw7-43" value="Manages" style="rhombus;whiteSpace=wrap;html=1;" parent="1" vertex="1">
          <mxGeometry x="1550" y="330" width="150" height="70" as="geometry" />
        </mxCell>
        <mxCell id="YrmcnvGJ-LemfI6sICw7-44" value="Equipment_maintenence" style="rounded=0;whiteSpace=wrap;html=1;" parent="1" vertex="1">
          <mxGeometry x="1680" y="545" width="150" height="60" as="geometry" />
        </mxCell>
        <mxCell id="YrmcnvGJ-LemfI6sICw7-45" value="" style="endArrow=none;html=1;rounded=0;entryX=1;entryY=1;entryDx=0;entryDy=0;exitX=0.5;exitY=0;exitDx=0;exitDy=0;" parent="1" source="YrmcnvGJ-LemfI6sICw7-44" target="YrmcnvGJ-LemfI6sICw7-43" edge="1">
          <mxGeometry width="50" height="50" relative="1" as="geometry">
            <mxPoint x="1670" y="520" as="sourcePoint" />
            <mxPoint x="1720" y="470" as="targetPoint" />
          </mxGeometry>
        </mxCell>
        <mxCell id="YrmcnvGJ-LemfI6sICw7-46" value="&lt;u&gt;equipment_id&lt;/u&gt;" style="ellipse;whiteSpace=wrap;html=1;" parent="1" vertex="1">
          <mxGeometry x="1960" y="500" width="100" height="30" as="geometry" />
        </mxCell>
        <mxCell id="YrmcnvGJ-LemfI6sICw7-47" value="" style="endArrow=none;html=1;rounded=0;entryX=0;entryY=0.5;entryDx=0;entryDy=0;exitX=1;exitY=0.5;exitDx=0;exitDy=0;" parent="1" source="YrmcnvGJ-LemfI6sICw7-44" target="YrmcnvGJ-LemfI6sICw7-46" edge="1">
          <mxGeometry width="50" height="50" relative="1" as="geometry">
            <mxPoint x="1850" y="550" as="sourcePoint" />
            <mxPoint x="1989" y="570" as="targetPoint" />
          </mxGeometry>
        </mxCell>
        <mxCell id="YrmcnvGJ-LemfI6sICw7-48" value="Payment" style="rounded=0;whiteSpace=wrap;html=1;" parent="1" vertex="1">
          <mxGeometry x="1410" y="545" width="150" height="60" as="geometry" />
        </mxCell>
        <mxCell id="YrmcnvGJ-LemfI6sICw7-49" value="" style="endArrow=none;html=1;rounded=0;entryX=0;entryY=1;entryDx=0;entryDy=0;exitX=0.5;exitY=0;exitDx=0;exitDy=0;" parent="1" source="YrmcnvGJ-LemfI6sICw7-48" target="YrmcnvGJ-LemfI6sICw7-43" edge="1">
          <mxGeometry width="50" height="50" relative="1" as="geometry">
            <mxPoint x="1400" y="520" as="sourcePoint" />
            <mxPoint x="1597.5" y="388" as="targetPoint" />
          </mxGeometry>
        </mxCell>
        <mxCell id="YrmcnvGJ-LemfI6sICw7-55" value="&lt;u&gt;room_used&lt;/u&gt;" style="ellipse;whiteSpace=wrap;html=1;" parent="1" vertex="1">
          <mxGeometry x="695" y="20" width="100" height="30" as="geometry" />
        </mxCell>
        <mxCell id="YrmcnvGJ-LemfI6sICw7-56" value="" style="endArrow=none;html=1;rounded=0;entryX=0.5;entryY=1;entryDx=0;entryDy=0;exitX=0.5;exitY=0;exitDx=0;exitDy=0;" parent="1" source="ec8auvbrhuzbYFVYdE39-45" target="YrmcnvGJ-LemfI6sICw7-55" edge="1">
          <mxGeometry width="50" height="50" relative="1" as="geometry">
            <mxPoint x="1040" y="150" as="sourcePoint" />
            <mxPoint x="1060" y="80" as="targetPoint" />
          </mxGeometry>
        </mxCell>
        <mxCell id="YrmcnvGJ-LemfI6sICw7-57" value="" style="endArrow=none;html=1;rounded=0;exitX=1;exitY=0.5;exitDx=0;exitDy=0;entryX=0;entryY=0.5;entryDx=0;entryDy=0;" parent="1" source="YrmcnvGJ-LemfI6sICw7-44" target="YrmcnvGJ-LemfI6sICw7-58" edge="1">
          <mxGeometry width="50" height="50" relative="1" as="geometry">
            <mxPoint x="1840" y="585" as="sourcePoint" />
            <mxPoint x="1960" y="575" as="targetPoint" />
          </mxGeometry>
        </mxCell>
        <mxCell id="YrmcnvGJ-LemfI6sICw7-58" value="equipment_name" style="ellipse;whiteSpace=wrap;html=1;" parent="1" vertex="1">
          <mxGeometry x="1960" y="540" width="100" height="30" as="geometry" />
        </mxCell>
        <mxCell id="YrmcnvGJ-LemfI6sICw7-61" value="" style="endArrow=none;html=1;rounded=0;exitX=1;exitY=0.5;exitDx=0;exitDy=0;entryX=0;entryY=0.5;entryDx=0;entryDy=0;" parent="1" source="YrmcnvGJ-LemfI6sICw7-44" target="YrmcnvGJ-LemfI6sICw7-62" edge="1">
          <mxGeometry width="50" height="50" relative="1" as="geometry">
            <mxPoint x="1830" y="615" as="sourcePoint" />
            <mxPoint x="1960" y="615" as="targetPoint" />
          </mxGeometry>
        </mxCell>
        <mxCell id="YrmcnvGJ-LemfI6sICw7-62" value="room_num" style="ellipse;whiteSpace=wrap;html=1;" parent="1" vertex="1">
          <mxGeometry x="1960" y="580" width="100" height="30" as="geometry" />
        </mxCell>
        <mxCell id="YrmcnvGJ-LemfI6sICw7-63" value="room_id" style="ellipse;whiteSpace=wrap;html=1;" parent="1" vertex="1">
          <mxGeometry x="780" y="560" width="100" height="30" as="geometry" />
        </mxCell>
        <mxCell id="YrmcnvGJ-LemfI6sICw7-64" value="" style="endArrow=none;html=1;rounded=0;exitX=1;exitY=0.5;exitDx=0;exitDy=0;entryX=0;entryY=0.5;entryDx=0;entryDy=0;" parent="1" source="YrmcnvGJ-LemfI6sICw7-63" target="ec8auvbrhuzbYFVYdE39-46" edge="1">
          <mxGeometry width="50" height="50" relative="1" as="geometry">
            <mxPoint x="950" y="600" as="sourcePoint" />
            <mxPoint x="1000" y="550" as="targetPoint" />
          </mxGeometry>
        </mxCell>
        <mxCell id="YrmcnvGJ-LemfI6sICw7-66" value="last_checked" style="ellipse;whiteSpace=wrap;html=1;" parent="1" vertex="1">
          <mxGeometry x="1960" y="620" width="100" height="30" as="geometry" />
        </mxCell>
        <mxCell id="YrmcnvGJ-LemfI6sICw7-70" value="" style="endArrow=none;html=1;rounded=0;exitX=1;exitY=0.5;exitDx=0;exitDy=0;entryX=0;entryY=0.5;entryDx=0;entryDy=0;" parent="1" source="YrmcnvGJ-LemfI6sICw7-44" target="YrmcnvGJ-LemfI6sICw7-66" edge="1">
          <mxGeometry width="50" height="50" relative="1" as="geometry">
            <mxPoint x="1780" y="780" as="sourcePoint" />
            <mxPoint x="1830" y="730" as="targetPoint" />
          </mxGeometry>
        </mxCell>
        <mxCell id="YrmcnvGJ-LemfI6sICw7-74" value="&lt;u&gt;payment_id&lt;/u&gt;" style="ellipse;whiteSpace=wrap;html=1;" parent="1" vertex="1">
          <mxGeometry x="1195" y="480" width="100" height="30" as="geometry" />
        </mxCell>
        <mxCell id="YrmcnvGJ-LemfI6sICw7-75" value="paymentType" style="ellipse;whiteSpace=wrap;html=1;" parent="1" vertex="1">
          <mxGeometry x="1195" y="520" width="100" height="30" as="geometry" />
        </mxCell>
        <mxCell id="YrmcnvGJ-LemfI6sICw7-76" value="amount" style="ellipse;whiteSpace=wrap;html=1;" parent="1" vertex="1">
          <mxGeometry x="1195" y="560" width="100" height="30" as="geometry" />
        </mxCell>
        <mxCell id="YrmcnvGJ-LemfI6sICw7-77" value="member_id" style="ellipse;whiteSpace=wrap;html=1;" parent="1" vertex="1">
          <mxGeometry x="1195" y="600" width="100" height="30" as="geometry" />
        </mxCell>
        <mxCell id="YrmcnvGJ-LemfI6sICw7-78" value="" style="endArrow=none;html=1;rounded=0;exitX=1;exitY=0.5;exitDx=0;exitDy=0;entryX=0;entryY=0.5;entryDx=0;entryDy=0;" parent="1" source="YrmcnvGJ-LemfI6sICw7-74" target="YrmcnvGJ-LemfI6sICw7-48" edge="1">
          <mxGeometry width="50" height="50" relative="1" as="geometry">
            <mxPoint x="1490" y="790" as="sourcePoint" />
            <mxPoint x="1540" y="740" as="targetPoint" />
          </mxGeometry>
        </mxCell>
        <mxCell id="YrmcnvGJ-LemfI6sICw7-79" value="" style="endArrow=none;html=1;rounded=0;exitX=1;exitY=0.5;exitDx=0;exitDy=0;entryX=0;entryY=0.5;entryDx=0;entryDy=0;" parent="1" source="YrmcnvGJ-LemfI6sICw7-75" target="YrmcnvGJ-LemfI6sICw7-48" edge="1">
          <mxGeometry width="50" height="50" relative="1" as="geometry">
            <mxPoint x="1410" y="820" as="sourcePoint" />
            <mxPoint x="1460" y="770" as="targetPoint" />
          </mxGeometry>
        </mxCell>
        <mxCell id="YrmcnvGJ-LemfI6sICw7-80" value="" style="endArrow=none;html=1;rounded=0;entryX=0;entryY=0.5;entryDx=0;entryDy=0;exitX=1;exitY=0.5;exitDx=0;exitDy=0;" parent="1" source="YrmcnvGJ-LemfI6sICw7-76" target="YrmcnvGJ-LemfI6sICw7-48" edge="1">
          <mxGeometry width="50" height="50" relative="1" as="geometry">
            <mxPoint x="1375" y="765" as="sourcePoint" />
            <mxPoint x="1395" y="590" as="targetPoint" />
          </mxGeometry>
        </mxCell>
        <mxCell id="YrmcnvGJ-LemfI6sICw7-81" value="" style="endArrow=none;html=1;rounded=0;entryX=0;entryY=0.5;entryDx=0;entryDy=0;exitX=1;exitY=0.5;exitDx=0;exitDy=0;" parent="1" source="YrmcnvGJ-LemfI6sICw7-77" target="YrmcnvGJ-LemfI6sICw7-48" edge="1">
          <mxGeometry width="50" height="50" relative="1" as="geometry">
            <mxPoint x="1360" y="775" as="sourcePoint" />
            <mxPoint x="1350" y="580" as="targetPoint" />
          </mxGeometry>
        </mxCell>
        <mxCell id="YrmcnvGJ-LemfI6sICw7-82" value="&lt;u&gt;staff_id&lt;/u&gt;" style="ellipse;whiteSpace=wrap;html=1;" parent="1" vertex="1">
          <mxGeometry x="1760" y="135" width="100" height="30" as="geometry" />
        </mxCell>
        <mxCell id="YrmcnvGJ-LemfI6sICw7-83" value="first_name" style="ellipse;whiteSpace=wrap;html=1;" parent="1" vertex="1">
          <mxGeometry x="1760" y="180" width="100" height="30" as="geometry" />
        </mxCell>
        <mxCell id="YrmcnvGJ-LemfI6sICw7-84" value="" style="endArrow=none;html=1;rounded=0;entryX=0;entryY=0.5;entryDx=0;entryDy=0;exitX=1;exitY=0.5;exitDx=0;exitDy=0;" parent="1" source="YrmcnvGJ-LemfI6sICw7-10" target="YrmcnvGJ-LemfI6sICw7-83" edge="1">
          <mxGeometry width="50" height="50" relative="1" as="geometry">
            <mxPoint x="1830" y="240" as="sourcePoint" />
            <mxPoint x="1880" y="190" as="targetPoint" />
          </mxGeometry>
        </mxCell>
        <mxCell id="YrmcnvGJ-LemfI6sICw7-85" value="" style="endArrow=none;html=1;rounded=0;entryX=0;entryY=0.5;entryDx=0;entryDy=0;exitX=1;exitY=0.5;exitDx=0;exitDy=0;" parent="1" source="YrmcnvGJ-LemfI6sICw7-10" target="YrmcnvGJ-LemfI6sICw7-82" edge="1">
          <mxGeometry width="50" height="50" relative="1" as="geometry">
            <mxPoint x="1450" y="300" as="sourcePoint" />
            <mxPoint x="1500" y="250" as="targetPoint" />
          </mxGeometry>
        </mxCell>
        <mxCell id="YrmcnvGJ-LemfI6sICw7-86" value="transaction_date" style="ellipse;whiteSpace=wrap;html=1;" parent="1" vertex="1">
          <mxGeometry x="1195" y="640" width="100" height="30" as="geometry" />
        </mxCell>
        <mxCell id="YrmcnvGJ-LemfI6sICw7-87" value="" style="endArrow=none;html=1;rounded=0;entryX=0;entryY=0.5;entryDx=0;entryDy=0;exitX=1;exitY=0.5;exitDx=0;exitDy=0;" parent="1" source="YrmcnvGJ-LemfI6sICw7-86" target="YrmcnvGJ-LemfI6sICw7-48" edge="1">
          <mxGeometry width="50" height="50" relative="1" as="geometry">
            <mxPoint x="1410" y="730" as="sourcePoint" />
            <mxPoint x="1460" y="680" as="targetPoint" />
          </mxGeometry>
        </mxCell>
      </root>
    </mxGraphModel>
  </diagram>
</mxfile>
